<?xml version="1.0" encoding="utf-8"?>
<!-- Generator: Adobe Illustrator 16.0.0, SVG Export Plug-In . SVG Version: 6.00 Build 0)  -->
<!DOCTYPE svg PUBLIC "-//W3C//DTD SVG 1.1//EN" "http://www.w3.org/Graphics/SVG/1.1/DTD/svg11.dtd">
<svg version="1.1" id="Ebene_1" xmlns="http://www.w3.org/2000/svg" xmlns:xlink="http://www.w3.org/1999/xlink" x="0px" y="0px"
	 width="162px" height="155.333px" viewBox="0 0 162 155.333" enable-background="new 0 0 162 155.333" xml:space="preserve">
<g>
	<path fill="#E30613" d="M-3.112,85.657"/>
	<path fill="#FFFFFF" d="M79.183,137.107c-1.417-1.083-2.403-10.005-2.403-10.005l11.072-2.87l10.809,0.213l1.692,9.755
		l-6.296,0.539l-8.446,0.997C85.611,135.736,79.296,137.821,79.183,137.107L79.183,137.107z"/>
	<path fill="#FFFFFF" d="M79.183,137.107c-1.417-1.083-2.403-10.005-2.403-10.005l11.072-2.87l10.809,0.213l1.692,9.755
		l-6.296,0.539l-8.446,0.997C85.611,135.736,79.296,137.821,79.183,137.107L79.183,137.107z"/>
	<path fill="#E30613" d="M101.312,136.63l-0.006,0.668c-3.174,0.194-7.353,0.826-10.689,0.574c1.943,2.284,5.908,2.729,8.331,1.742
		c0.685-0.278,2.269-1.145,4.01-0.299c2.834,1.375,3.858,4.182,2.61,7.034c-0.959,2.189-3.243,2.704-5.368,2.958
		c-2.828,0.338-7.877-2.852-9.627-6.428c-1.229,0.49-1.534,2.686-2.371,3.986c-1.79,2.779-5.731,5.896-10.391,4.583
		c-2.136-0.602-3.692-4.15-2.612-6.7c2.317-5.475,10.804-1.019,13.084-7.231c-2.06,0.038-4.528,2.354-6.697,2.279
		c-1.397,0.655-3.351,1.361-4.686,1.294c1.022-2.439,4.844-0.291,5.704-3.289c1.353-1.936,3.955-0.466,5.688-1.285
		c-0.059,0.333,0.162,0.502,0.328,0.67c0.942,0.398,0.952-0.659,1.344-0.989C93.593,134.783,97.756,135.987,101.312,136.63
		L101.312,136.63z"/>
	<path fill="none" stroke="#E30613" stroke-width="0.5612" stroke-linecap="square" stroke-miterlimit="2" d="M101.312,136.63
		l-0.006,0.668c-3.174,0.194-7.353,0.826-10.689,0.574c1.943,2.284,5.908,2.729,8.331,1.742c0.685-0.278,2.269-1.145,4.01-0.299
		c2.834,1.375,3.858,4.182,2.61,7.034c-0.959,2.189-3.243,2.704-5.368,2.958c-2.828,0.338-7.877-2.852-9.627-6.428
		c-1.229,0.49-1.534,2.686-2.371,3.986c-1.79,2.779-5.731,5.896-10.391,4.583c-2.136-0.602-3.692-4.15-2.612-6.7
		c2.317-5.475,10.804-1.019,13.084-7.231c-2.06,0.038-4.528,2.354-6.697,2.279c-1.397,0.655-3.351,1.361-4.686,1.294
		c1.022-2.439,4.844-0.291,5.704-3.289c1.353-1.936,3.955-0.466,5.688-1.285c-0.059,0.333,0.162,0.502,0.328,0.67
		c0.942,0.398,0.952-0.659,1.344-0.989C93.593,134.783,97.756,135.987,101.312,136.63L101.312,136.63z"/>
	<path fill="#004F9F" d="M99.61,124.691c-0.025,2.838,1.688,7.099,1.72,9.937l-0.674,0.662c-7.656-1.452-14.628,0.518-21.471,2.244
		c0,0-0.837-0.14-1.148-0.451l-1.501-9.388l1.184,0.01c1.089,2.736,0.245,10.326,5.344,8.286c2.355-0.941,10.185-2.127,14.98-1.849
		c3.736,0.218-1.133-6.852,0.614-9.341C98.941,124.774,99.276,124.688,99.61,124.691L99.61,124.691z"/>
	<path fill="none" stroke="#004F9F" stroke-width="0.18" stroke-linecap="square" stroke-miterlimit="2" d="M99.61,124.691
		c-0.025,2.838,1.688,7.099,1.72,9.937l-0.674,0.662c-7.656-1.452-14.628,0.518-21.471,2.244c0,0-0.837-0.14-1.148-0.451
		l-1.501-9.388l1.184,0.01c1.089,2.736,0.245,10.326,5.344,8.286c2.355-0.941,10.185-2.127,14.98-1.849
		c3.736,0.218-1.133-6.852,0.614-9.341C98.941,124.774,99.276,124.688,99.61,124.691L99.61,124.691z"/>
	<path fill="#FFFFFF" d="M99.973,136.953c-1.83-0.628-6.187,1.17-9.011-0.412C93.478,135.226,97.252,136.261,99.973,136.953
		L99.973,136.953z"/>
	<path fill="#FFFFFF" d="M82.592,139.138c-0.044-1.336,1.462-1.657,2.355-1.983l2.336,0.021L82.592,139.138L82.592,139.138z"/>
	<path fill="#E30613" d="M99.166,4.427c15.854-0.2,31.73,1.539,41.27,7.881c3.51,2.334,5.233,6.421,7.296,10.205
		c4.994,9.162,7.549,20.991,9.131,33.375c0.66,5.192,0.562,10.356,1.136,15.728c0.515,4.841-0.31,9.669-0.717,13.854
		c-0.456,4.679-1.508,9.153-2.743,12.99c-0.426,1.313-0.652,2.437-1.304,3.537c-3.143,5.297-7.624,8.258-13.086,11.21
		c-0.802,0.432-1.797,1.099-2.644,1.414c-0.415,0.151-3.635,1.59-4.771,2.07c-3.145,1.325-6.838,2.34-10.229,3.346
		c-2.42,0.713-13.101,2.926-13.595,3.038c-3.009,0.677-6.404,1.347-9.522,1.86c-4.043,0.662-8.408,0.249-12.401,0.906
		c-2.922,0.479-6.188,1.48-8.93,1.95c-3.05,0.52-6.479,0.544-9.617,0.796c-6.044,0.483-11.705,0.917-18.479,0.738
		c-2.111-0.055-4.737-0.099-6.718-0.317c-7.955-0.885-16.177-2.592-21.076-6.775c-2.715-2.315-4.608-5.688-6.374-8.929
		c-4.774-8.756-7.882-18.964-9.92-30.425c-0.382-2.147-1.09-4.62-1.298-6.855c-0.372-3.936-0.556-7.471-0.832-11.67
		c-0.265-3.992-0.525-9.419,0.033-13.521c0.209-1.551-0.07-2.945,0.124-4.478c0.65-5.247,1.802-10.714,3.862-14.671
		c2.048-3.943,6.042-6.951,9.883-9.117c2.493-1.41,5.211-2.999,7.973-4.079c7.195-2.815,13.683-5.641,22.333-7.537
		c2.294-0.503,5.162-1.317,7.628-1.75c5.483-0.969,11.017-1.869,16.659-2.581C80.736,5.546,89.763,4.543,99.166,4.427L99.166,4.427z
		"/>
	<path fill="none" stroke="#E30613" stroke-width="0.18" stroke-miterlimit="3.8637" d="M99.166,4.427
		c15.854-0.2,31.73,1.539,41.27,7.881c3.51,2.334,5.233,6.421,7.296,10.205c4.994,9.162,7.549,20.991,9.131,33.375
		c0.66,5.192,0.562,10.356,1.136,15.728c0.515,4.841-0.31,9.669-0.717,13.854c-0.456,4.679-1.508,9.153-2.743,12.99
		c-0.426,1.313-0.652,2.437-1.304,3.537c-3.143,5.297-7.624,8.258-13.086,11.21c-0.802,0.432-1.797,1.099-2.644,1.414
		c-0.415,0.151-3.635,1.59-4.771,2.07c-3.145,1.325-6.838,2.34-10.229,3.346c-2.42,0.713-13.101,2.926-13.595,3.038
		c-3.009,0.677-6.404,1.347-9.522,1.86c-4.043,0.662-8.408,0.249-12.401,0.906c-2.922,0.479-6.188,1.48-8.93,1.95
		c-3.05,0.52-6.479,0.544-9.617,0.796c-6.044,0.483-11.705,0.917-18.479,0.738c-2.111-0.055-4.737-0.099-6.718-0.317
		c-7.955-0.885-16.177-2.592-21.076-6.775c-2.715-2.315-4.608-5.688-6.374-8.929c-4.774-8.756-7.882-18.964-9.92-30.425
		c-0.382-2.147-1.09-4.62-1.298-6.855c-0.372-3.936-0.556-7.471-0.832-11.67c-0.265-3.992-0.525-9.419,0.033-13.521
		c0.209-1.551-0.07-2.945,0.124-4.478c0.65-5.247,1.802-10.714,3.862-14.671c2.048-3.943,6.042-6.951,9.883-9.117
		c2.493-1.41,5.211-2.999,7.973-4.079c7.195-2.815,13.683-5.641,22.333-7.537c2.294-0.503,5.162-1.317,7.628-1.75
		c5.483-0.969,11.017-1.869,16.659-2.581C80.736,5.546,89.763,4.543,99.166,4.427L99.166,4.427z"/>
	<path fill="#FFFFFF" d="M100.618,139.629c1.521-0.72,3.776,0.923,4.651,2.712c0.976,1.995,0.125,4.675-2.053,5.657
		c-3.607,1.627-7.004-0.269-9.662-2.421c-1.77-1.434-1.809-3.132-3.643-3.371c-1.183,4.009-4.366,8.487-9.425,8.954
		c-2.087,0.192-4.367-1.407-4.989-2.94c-0.716-1.764-0.082-4.117,1.718-5.123c3.673-2.05,9.375-0.49,12.065-5.236
		C92.208,140.446,96.973,141.356,100.618,139.629L100.618,139.629z"/>
	<path fill="#FFFFFF" d="M109.405,5.696c-0.484,0.994,0.291,2.454,0.646,3.459c0.315,0.896,0.608,1.585,0.995,2.368
		c0.335,0.68,0.503,0.85,1.097,0.431C111.914,9.746,111.115,6.514,109.405,5.696L109.405,5.696z"/>
	<path fill="#FFFFFF" d="M135.591,11.232c-0.538,1.127-0.642,2.961-0.884,4.289c-0.244,1.316-0.788,3.952,0.558,3.964
		C135.898,17.904,137.486,12.371,135.591,11.232L135.591,11.232z"/>
	<path fill="#FFFFFF" d="M122.428,6.821c-0.896,0.771,0.771,6.768,1.288,7.509c1.136-0.39,0.614-1.221,0.529-2.438
		c-0.238-0.002,0-0.355,0.003-0.337C123.844,9.661,123.592,7.942,122.428,6.821L122.428,6.821z"/>
	<path fill="#FFFFFF" d="M123.473,110.113c-0.421,0.058-0.914,0.466-0.686,1.006c0.336,0.797,7.455,4.189,8.847,4.457
		c0.758,0.144,1.216-0.244,1.612-0.491c0.904-0.574-0.188-0.944-0.836-1.187c-0.73-0.275-1.491-0.674-2.191-1.03
		C128.847,112.168,125.432,109.846,123.473,110.113L123.473,110.113z"/>
	<path fill="#FFFFFF" d="M137.988,105.101c-0.233,0.053-0.786,0.425-1.021,0.581c-0.279,0.182-0.328,0.379-0.514,0.669
		c2.275,1.089,6.241,1.848,9.551,1.432c-0.03-0.422,0.127-1.236-0.326-1.436c-0.776-0.344-1.625-0.138-2.536-0.274
		C141.999,105.897,139.175,104.819,137.988,105.101L137.988,105.101z"/>
	<path fill="#FFFFFF" d="M152.206,95.453c-0.487,0.009-0.939,0.35-1.357,0.409c-1.375,0.193-2.436,0.234-3.645,0.559
		c-0.631,0.165-1.429,0.445-1.701,0.996c-0.156,0.312-0.138,0.604-0.094,1.01c1.908,0.228,5.673-0.588,7.29-1.368
		C153.424,96.706,153.136,95.434,152.206,95.453L152.206,95.453z"/>
	<path fill="#FFFFFF" d="M155.108,82.925c-0.599,0.063-1.324,0.792-1.871,0.995c-1.066,0.394-1.909,0.607-2.887,1.07
		c-0.494,0.229-0.873,0.679-1.278,0.999c-0.149,0.115-0.605,0.259-0.681,0.415c-0.236,0.475-0.33,1.529,0.241,1.52
		c1.092-0.022,6.963-2.985,7.31-3.644c0.126-0.241,0.12-0.681,0.008-0.927C155.848,83.135,155.481,82.884,155.108,82.925
		L155.108,82.925z"/>
	<path fill="#FFFFFF" d="M155.465,71.05c-0.856-0.063-5.074,2.322-5.526,2.9c-0.813,1.027-0.817,2.094,0.835,1.271
		c1.615-0.807,3.217-1.312,4.506-2.403C155.501,72.627,156.485,71.123,155.465,71.05L155.465,71.05z"/>
	<path fill="#FFFFFF" d="M155.157,57.906c-1.536,0.563-4.276,2.65-5.618,3.657c-0.684,0.511-1.545,1.641-0.358,2.356
		c0.352-0.261,0.659-0.689,1.023-0.918c0.354-0.226,0.793-0.223,1.188-0.411C152.388,62.107,156.631,59.253,155.157,57.906
		L155.157,57.906z"/>
	<path fill="#FFFFFF" d="M152.897,45.25c-0.592-0.011-1.074,0.954-1.449,1.251c-1.052,0.822-4.957,3.413-3.852,5.021
		c2.129-1.026,4.705-3.115,5.715-5.257C153.473,45.917,153.5,45.257,152.897,45.25L152.897,45.25z"/>
	<path fill="#FFFFFF" d="M149.788,33.091c-1.382,1.72-3.257,2.833-4.358,4.848c-0.354,0.645-0.769,1.168-0.525,2.018
		C146.345,39.603,152.409,33.714,149.788,33.091L149.788,33.091z"/>
	<path fill="#FFFFFF" d="M145.151,21.34c-0.787,1.102-1.449,2.444-2.23,3.52c-0.479,0.653-0.962,1.429-1.373,2.094
		c-0.478,0.768-1.294,2.516,0.062,2.696C142.355,28.421,146.98,22.689,145.151,21.34L145.151,21.34z"/>
	<path fill="#FFFFFF" d="M110.75,113.288c-0.711,0.036-1.186,0.787-0.519,1.259c1.08,0.763,2.301,1.289,3.453,1.968
		c1.236,0.728,2.455,1.698,3.872,2.309c0.765,0.328,1.399,0.602,2.449,0.611l0.09-0.589c-0.046-0.185-0.02-0.225-0.082-0.338
		c-0.567-1.042-2.481-1.704-3.448-2.389C115.585,115.425,112.188,113.213,110.75,113.288L110.75,113.288z"/>
	<path fill="#FFFFFF" d="M50.601,120.597c-0.141,0.283-0.368,0.6-0.265,1.177c0.101,0.575,0.698,0.97,0.919,1.44
		c0.776,1.66,1.089,3.658,2.583,4.572c1.047,0.638,0.958-0.613,0.688-1.258c-0.257-0.61-0.623-1.327-0.914-1.945
		C52.857,122.984,52.2,121.362,50.601,120.597L50.601,120.597z"/>
	<path fill="#FFFFFF" d="M62.62,120.365c-0.094,0.226-0.362,0.326-0.261,0.841c0.207,1.081,2.993,6.078,3.837,6.436
		c0.877,0.371,1.688-0.062,1.191-0.832c-0.503-0.778-1.079-1.454-1.502-2.372C65.132,122.806,64.454,120.937,62.62,120.365
		L62.62,120.365z"/>
	<path fill="#FFFFFF" d="M39.857,120.083c-0.356,1.479,0.333,3.999,0.885,5.315c0.329,0.787,0.773,1.712,1.42,2.202
		c0.347,0.261,0.606,0.219,1.099,0.178c0.058-0.873-1.863-6.25-2.393-7.097C40.633,120.305,40.33,120.26,39.857,120.083
		L39.857,120.083z"/>
	<path fill="#FFFFFF" d="M73.042,118.94c-0.482,0.133-0.061,0.61,0.078,0.843c0.739,1.257,1.755,2.477,2.42,3.813
		c0.414,0.833,0.557,1.727,1.079,2.452c0.267,0.371,0.515,0.41,1.011,0.599c0.189-0.24,0.437-0.394,0.347-0.924
		C77.777,124.573,74.413,118.557,73.042,118.94L73.042,118.94z"/>
	<path fill="#FFFFFF" d="M28.721,116.11c-0.121,0.899-0.195,2.681-0.287,3.788c-0.086,1-0.062,2.158,0.144,2.95
		c0.123,0.482,0.341,1.53,0.746,1.775c0.213,0.129,0.511,0.244,0.678-0.078c0.196-0.388,0.134-7.499-0.101-7.92
		C29.704,116.271,29.18,116.232,28.721,116.11L28.721,116.11z"/>
	<path fill="#FFFFFF" d="M97.356,115.951c-0.229,0.282-0.527,0.728-0.265,1.262c0.143,0.293,0.666,0.393,0.926,0.598
		c1.469,1.15,4.184,4.27,6.222,4.604c0.917,0.147,0.944-0.893,0.605-1.427c-0.164-0.257-0.825-0.613-1.262-0.854
		C101.65,118.518,100.224,116.703,97.356,115.951L97.356,115.951z"/>
	<path fill="#FFFFFF" d="M22.364,107.629c-0.726,1.013-1.542,2.059-2.144,3.183c-0.385,0.716-0.744,1.339-1.118,2.097
		c-0.377,0.755-1.072,1.918-0.107,2.526c0.674-1.126,4.32-5.936,3.957-7.379C22.878,107.766,22.594,107.795,22.364,107.629
		L22.364,107.629z"/>
	<path fill="#FFFFFF" d="M17.793,97.902c-0.232,0.043-0.587,0.598-0.768,0.752c-1.665,1.367-3.271,2.728-3.771,5.274
		c0.188,0.088,0.333,0.134,0.591,0.258c0.924-0.737,4.392-4.163,4.616-5.268C18.575,98.348,18.379,97.789,17.793,97.902
		L17.793,97.902z"/>
	<path fill="#FFFFFF" d="M14.763,86.334c-0.141,0.035-0.308,0.415-0.427,0.501c-1.7,1.181-3.705,1.753-4.017,4.346
		c0.069,0.035,0.299,0.105,0.338,0.172c1.563-0.932,4.172-2.249,4.774-4.086C15.528,86.967,15.62,86.113,14.763,86.334
		L14.763,86.334z"/>
	<path fill="#FFFFFF" d="M13,75.03c-0.985,0.781-2.322,1.209-3.402,1.908c-0.683,0.438-1.274,0.915-1.874,1.416
		c-0.184,0.148-2.046,2.027-0.44,1.934c0.636-0.039,1.74-1.102,2.298-1.412C10.299,78.473,15.569,76.174,13,75.03L13,75.03z"/>
	<path fill="#FFFFFF" d="M11.414,62.885c-0.315,0.052-0.711,0.533-1.021,0.665c-1.364,0.569-2.457,0.974-3.485,1.822
		c-0.453,0.37-0.949,0.593-1.279,1.084c-0.429,0.634-0.663,1.111-0.269,1.684c1.379-0.626,6.358-2.717,6.805-3.9
		C12.353,63.725,12.227,62.748,11.414,62.885L11.414,62.885z"/>
	<path fill="#FFFFFF" d="M10.835,51.507c-0.328,0.023-3.423,1.317-3.906,1.566c-0.879,0.447-1.451,0.883-1.626,2.092
		c0.082,0.062,0.275,0.258,0.335,0.34c1.115-0.401,7.499-2.178,5.788-3.74C11.25,51.603,11.207,51.479,10.835,51.507L10.835,51.507z
		"/>
	<path fill="#FFFFFF" d="M12.887,39.478c-1.174-0.07-3.694,0.354-4.66,0.718c-0.364,0.134-0.792,0.372-1.105,0.58
		c-0.663,0.431-0.439,0.901-0.183,1.515c1.278-0.163,5.9-0.704,6.358-1.293c0.137-0.178,0.104-0.533,0.176-0.756
		C13.603,39.624,13.263,39.5,12.887,39.478L12.887,39.478z"/>
	<path fill="#FFFFFF" d="M11.628,28.6c-0.617,0.11-0.652,0.525-0.688,1.257c0,0-0.004,0.219,0.167,0.339
		c0.686,0.478,4.69,1.315,5.741,1.482c2.169,0.343,3.056-0.134,4.155-0.891c-0.003-0.016-0.031-0.475-0.082-0.338
		c-0.854-0.539-2.246-0.564-3.292-0.955C16.182,28.953,13.732,28.218,11.628,28.6L11.628,28.6z"/>
	<path fill="#FFFFFF" d="M22.274,20.942c-0.106,0.033-0.494,0.552-0.514,0.67c-0.022,0.112,0.08,0.506,0.08,0.506
		c1.113,0.66,6.406,4.173,8.008,3.692c0.337-0.103,0.244-0.382,0.345-0.755c0.028,0.107,0.095-0.207,0.087-0.252
		c-0.066-0.312-0.346-0.351-0.588-0.511C28.698,23.63,23.875,20.419,22.274,20.942L22.274,20.942z"/>
	<path fill="#FFFFFF" d="M34.503,15.994c-0.19,0.252-0.518,0.544-0.349,1.177c0.146,0.546,5.431,4.691,6.221,4.772
		c0.513,0.049,0.527-0.08,0.681-0.416c0.407-0.901-0.496-1.347-1.085-1.778C38.134,18.403,37.037,16.674,34.503,15.994
		L34.503,15.994z"/>
	<path fill="#FFFFFF" d="M46.806,12.395c-0.302,0.032-0.62,0.456-0.517,0.922c0.11,0.507,1.151,1.171,1.511,1.529
		c1.523,1.522,2.41,3.46,4.958,4.003c0.218-0.45,0.457-0.896,0.098-1.432C52.367,16.693,47.677,12.3,46.806,12.395L46.806,12.395z"
		/>
	<path fill="#FFFFFF" d="M59.436,10.062c-0.255,0.042-0.469,0.38-0.43,0.754c0.037,0.367,3.763,5.541,4.181,5.849
		c0.26,0.192,0.509,0.207,0.843,0.345c0.166-0.225,0.404-0.191,0.345-0.671C64.246,15.345,60.344,9.904,59.436,10.062L59.436,10.062
		z"/>
	<path fill="#FFFFFF" d="M71.132,8.058c-0.206,0.288-0.423,0.296-0.262,0.84c0.27,0.921,3.135,5.967,3.839,6.268
		c1.921,0.822,0.15-2.384,0.022-2.611C73.816,10.919,73.073,8.665,71.132,8.058L71.132,8.058z"/>
	<path fill="#FFFFFF" d="M83.672,6.314C83.587,6.39,83.245,6.9,83.245,6.9l0.499,0.931c1.11,1.929,1.701,4.264,3.251,5.757
		c1.201-0.432,0.379-1.703,0.021-2.527C86.275,9.362,85.459,6.991,83.672,6.314L83.672,6.314z"/>
	<path fill="#FFFFFF" d="M96.539,6.005c-0.314,1.15,0.555,2.832,1.067,3.8c0.434,0.822,0.82,1.692,1.418,2.371
		c0.34,0.387,1.175,0.842,1.102-0.243c-0.059-0.827-2.567-5.732-3.079-5.924C96.894,5.951,96.698,6.041,96.539,6.005L96.539,6.005z"
		/>
	<path fill="#004F9F" d="M104.277,13.412c-4.878,0.161-9.83,0.443-14.523,0.837c-3.831,0.321-12.548,1.531-17.029,2.135
		c-3.731,0.503-13.087,2.018-18.739,3.22c-1.237,0.264-5.874,1.309-7.089,1.649c-1.002,0.276-8.181,2.291-9.534,2.688
		c-1.591,0.465-3.243,1.28-4.778,1.819c-6.689,2.345-13.741,5.695-17.194,11.269c-3.07,4.945-3.824,11.829-3.331,19.24
		c0.174,2.623,0.189,5.359,0.371,8.055c0.134,2.028,0.966,9.32,1.266,10.922c1.176,6.312,2.876,12.739,4.516,18.563
		c1.944,6.905,3.692,12.974,7.412,18.081c1.059,1.455,1.582,2.294,2.83,3.452c0.515,0.478,1.862,0.997,2.486,1.331
		c9.026,4.823,24.539,4.067,36.45,2.679c1.492-0.175,3.832-0.36,5.346-0.535c2.823-0.332,5.435-1.222,8.63-1.027
		c1.39,0.084,2.62,0.713,3.475,1.384c0.824,0.645,1.752,3,3.122,2.903c1.191-0.088,1.938-2.412,2.579-3.191
		c0.927-1.132,2.396-2.276,3.853-2.843c1.243-0.486,3.071-0.803,4.537-1.057c2.428-0.426,4.089-0.721,6.594-1.158
		c2.776-0.491,6.085-0.933,8.821-1.693c2.88-0.805,6.131-1.57,9.088-2.316c2.818-0.716,9.177-2.852,11.227-3.92
		c3.185-1.662,5.806-2.798,7.039-3.921c1.15-1.048,2.081-2.738,2.852-4.188c5.502-10.398,4.838-28.752,3.104-42.351
		c-0.338-2.633-0.429-4.78-0.958-7.198c-0.266-1.208-1.611-6.658-1.968-7.832c-1.305-4.283-2.651-7.943-4.408-11.932
		c-0.521-1.184-2.809-6.512-5.368-8.59c-4.025-3.268-10.626-5.512-17.383-6.072C115.373,13.631,106.679,13.333,104.277,13.412
		L104.277,13.412z"/>
	<path fill="#FFFFFF" d="M124.859,20.272c6.771,1.588,11.939,11.762,12.355,19.513c0.041,0.759-0.929,0.865-1.678,0.987
		c-9.252,1.508-15.547,2.368-23.063,2.804c-2.182-5.027-7.091-9.75-13.27-9.799c-17.648-0.14-32.736,2.442-48.478,6.811
		c-5.395,1.496-7.287,6.726-7.439,11.398c-0.092,2.837,1.236,5.075,2.607,7.368c2.364,3.955,7.983,3.297,12.329,2.778
		c21.156-2.524,62.846-8.799,62.846-8.799c7.593-0.854,13.797,3.106,18.284,9.174c4.216,5.7,6.979,24.711,0.919,34.391
		c-3.214,5.135-17.583,11.46-30.388,13.765c-15.949,2.871-32.071,4.501-48.377,6.462c-6.672,0.802-26.11,1.658-32.254-9.089
		c-2.647-4.631-4.545-10.068-4.634-15.859c4.969-1.498,19.156-4.01,23.969-3.832c1.068,4.188,5.642,10.48,9.633,12.185
		c6.559,2.801,15.543,0.929,23.036,0.201c10.099-0.98,20.061-3.107,29.435-6.087c4.561-1.448,7.514-6.444,7.444-11.286
		c-0.069-4.812-2.143-9.646-6.906-12.08c-3.134-1.602-6.954-0.981-11.348-0.434C74.606,74,46.038,78.226,39.323,78.9
		c-8.661,0.87-18.086-6.071-19.855-13.767c-1.785-7.764-4.211-18.873,1.227-25.697c8.382-10.521,25.734-13.938,40.211-16.677
		C81.111,18.936,103.77,15.328,124.859,20.272L124.859,20.272z"/>
</g>
</svg>
